<mxfile host="Electron" modified="2024-02-19T18:09:03.413Z" agent="Mozilla/5.0 (X11; Linux x86_64) AppleWebKit/537.36 (KHTML, like Gecko) draw.io/23.1.5 Chrome/120.0.6099.109 Electron/28.1.0 Safari/537.36" etag="9FydEfuQjRFaa6eYQ9Vq" version="23.1.5" type="device">
  <diagram id="C5RBs43oDa-KdzZeNtuy" name="Page-1">
    <mxGraphModel dx="764" dy="401" grid="1" gridSize="10" guides="1" tooltips="1" connect="1" arrows="1" fold="1" page="1" pageScale="1" pageWidth="827" pageHeight="1169" math="0" shadow="0">
      <root>
        <mxCell id="WIyWlLk6GJQsqaUBKTNV-0" />
        <mxCell id="WIyWlLk6GJQsqaUBKTNV-1" parent="WIyWlLk6GJQsqaUBKTNV-0" />
        <mxCell id="OmyUyLPWtnqMIRpj19yH-13" style="edgeStyle=orthogonalEdgeStyle;rounded=0;orthogonalLoop=1;jettySize=auto;html=1;exitX=0;exitY=0.75;exitDx=0;exitDy=0;entryX=1.026;entryY=0.856;entryDx=0;entryDy=0;entryPerimeter=0;" edge="1" parent="WIyWlLk6GJQsqaUBKTNV-1" source="OmyUyLPWtnqMIRpj19yH-0" target="OmyUyLPWtnqMIRpj19yH-2">
          <mxGeometry relative="1" as="geometry" />
        </mxCell>
        <mxCell id="OmyUyLPWtnqMIRpj19yH-14" value="Update User Statuses" style="edgeLabel;html=1;align=center;verticalAlign=middle;resizable=0;points=[];" vertex="1" connectable="0" parent="OmyUyLPWtnqMIRpj19yH-13">
          <mxGeometry x="-0.0127" y="-2" relative="1" as="geometry">
            <mxPoint as="offset" />
          </mxGeometry>
        </mxCell>
        <mxCell id="OmyUyLPWtnqMIRpj19yH-15" style="edgeStyle=orthogonalEdgeStyle;rounded=0;orthogonalLoop=1;jettySize=auto;html=1;exitX=1;exitY=0.25;exitDx=0;exitDy=0;entryX=0;entryY=0.25;entryDx=0;entryDy=0;" edge="1" parent="WIyWlLk6GJQsqaUBKTNV-1" source="OmyUyLPWtnqMIRpj19yH-0" target="OmyUyLPWtnqMIRpj19yH-16">
          <mxGeometry relative="1" as="geometry">
            <mxPoint x="690" y="378" as="targetPoint" />
          </mxGeometry>
        </mxCell>
        <mxCell id="OmyUyLPWtnqMIRpj19yH-17" value="user&lt;br&gt;logon&lt;br&gt;request" style="edgeLabel;html=1;align=center;verticalAlign=middle;resizable=0;points=[];" vertex="1" connectable="0" parent="OmyUyLPWtnqMIRpj19yH-15">
          <mxGeometry x="-0.0094" relative="1" as="geometry">
            <mxPoint as="offset" />
          </mxGeometry>
        </mxCell>
        <mxCell id="OmyUyLPWtnqMIRpj19yH-20" style="edgeStyle=orthogonalEdgeStyle;rounded=0;orthogonalLoop=1;jettySize=auto;html=1;exitX=0.25;exitY=0;exitDx=0;exitDy=0;entryX=0.25;entryY=1;entryDx=0;entryDy=0;" edge="1" parent="WIyWlLk6GJQsqaUBKTNV-1" source="OmyUyLPWtnqMIRpj19yH-0" target="OmyUyLPWtnqMIRpj19yH-6">
          <mxGeometry relative="1" as="geometry" />
        </mxCell>
        <mxCell id="OmyUyLPWtnqMIRpj19yH-21" value="Book Query" style="edgeLabel;html=1;align=center;verticalAlign=middle;resizable=0;points=[];" vertex="1" connectable="0" parent="OmyUyLPWtnqMIRpj19yH-20">
          <mxGeometry x="0.0066" y="-2" relative="1" as="geometry">
            <mxPoint as="offset" />
          </mxGeometry>
        </mxCell>
        <mxCell id="OmyUyLPWtnqMIRpj19yH-27" style="edgeStyle=orthogonalEdgeStyle;rounded=0;orthogonalLoop=1;jettySize=auto;html=1;exitX=0.5;exitY=1;exitDx=0;exitDy=0;" edge="1" parent="WIyWlLk6GJQsqaUBKTNV-1" source="OmyUyLPWtnqMIRpj19yH-0">
          <mxGeometry relative="1" as="geometry">
            <mxPoint x="520.2857142857142" y="540" as="targetPoint" />
          </mxGeometry>
        </mxCell>
        <mxCell id="OmyUyLPWtnqMIRpj19yH-28" value="Share Content&lt;br&gt;(post, image,comment)" style="edgeLabel;html=1;align=center;verticalAlign=middle;resizable=0;points=[];" vertex="1" connectable="0" parent="OmyUyLPWtnqMIRpj19yH-27">
          <mxGeometry x="-0.0165" y="-1" relative="1" as="geometry">
            <mxPoint as="offset" />
          </mxGeometry>
        </mxCell>
        <mxCell id="OmyUyLPWtnqMIRpj19yH-40" style="edgeStyle=orthogonalEdgeStyle;rounded=0;orthogonalLoop=1;jettySize=auto;html=1;exitX=0.75;exitY=0;exitDx=0;exitDy=0;entryX=1;entryY=0.75;entryDx=0;entryDy=0;" edge="1" parent="WIyWlLk6GJQsqaUBKTNV-1" source="OmyUyLPWtnqMIRpj19yH-0" target="OmyUyLPWtnqMIRpj19yH-6">
          <mxGeometry relative="1" as="geometry" />
        </mxCell>
        <mxCell id="OmyUyLPWtnqMIRpj19yH-41" value="User Account&lt;br&gt;Change" style="edgeLabel;html=1;align=center;verticalAlign=middle;resizable=0;points=[];" vertex="1" connectable="0" parent="OmyUyLPWtnqMIRpj19yH-40">
          <mxGeometry x="-0.1985" y="1" relative="1" as="geometry">
            <mxPoint y="8" as="offset" />
          </mxGeometry>
        </mxCell>
        <mxCell id="OmyUyLPWtnqMIRpj19yH-0" value="MoreBooksServer" style="rounded=0;whiteSpace=wrap;html=1;fillColor=#0095FF;" vertex="1" parent="WIyWlLk6GJQsqaUBKTNV-1">
          <mxGeometry x="430" y="355" width="181" height="90" as="geometry" />
        </mxCell>
        <mxCell id="OmyUyLPWtnqMIRpj19yH-3" style="edgeStyle=orthogonalEdgeStyle;rounded=0;orthogonalLoop=1;jettySize=auto;html=1;exitX=1;exitY=0.25;exitDx=0;exitDy=0;entryX=-0.006;entryY=0.325;entryDx=0;entryDy=0;entryPerimeter=0;" edge="1" parent="WIyWlLk6GJQsqaUBKTNV-1" source="OmyUyLPWtnqMIRpj19yH-2" target="OmyUyLPWtnqMIRpj19yH-0">
          <mxGeometry relative="1" as="geometry" />
        </mxCell>
        <mxCell id="OmyUyLPWtnqMIRpj19yH-4" value="Book Barcode" style="edgeLabel;html=1;align=center;verticalAlign=middle;resizable=0;points=[];" vertex="1" connectable="0" parent="OmyUyLPWtnqMIRpj19yH-3">
          <mxGeometry x="0.0025" relative="1" as="geometry">
            <mxPoint as="offset" />
          </mxGeometry>
        </mxCell>
        <mxCell id="OmyUyLPWtnqMIRpj19yH-10" style="edgeStyle=orthogonalEdgeStyle;rounded=0;orthogonalLoop=1;jettySize=auto;html=1;exitX=1;exitY=0.5;exitDx=0;exitDy=0;entryX=0;entryY=0.5;entryDx=0;entryDy=0;" edge="1" parent="WIyWlLk6GJQsqaUBKTNV-1" source="OmyUyLPWtnqMIRpj19yH-2" target="OmyUyLPWtnqMIRpj19yH-0">
          <mxGeometry relative="1" as="geometry" />
        </mxCell>
        <mxCell id="OmyUyLPWtnqMIRpj19yH-11" value="Post/Comment" style="edgeLabel;html=1;align=center;verticalAlign=middle;resizable=0;points=[];" vertex="1" connectable="0" parent="OmyUyLPWtnqMIRpj19yH-10">
          <mxGeometry x="-0.0021" y="-1" relative="1" as="geometry">
            <mxPoint as="offset" />
          </mxGeometry>
        </mxCell>
        <mxCell id="OmyUyLPWtnqMIRpj19yH-23" style="edgeStyle=orthogonalEdgeStyle;rounded=0;orthogonalLoop=1;jettySize=auto;html=1;exitX=0.75;exitY=0;exitDx=0;exitDy=0;entryX=0;entryY=0;entryDx=0;entryDy=0;" edge="1" parent="WIyWlLk6GJQsqaUBKTNV-1" source="OmyUyLPWtnqMIRpj19yH-2" target="OmyUyLPWtnqMIRpj19yH-0">
          <mxGeometry relative="1" as="geometry" />
        </mxCell>
        <mxCell id="OmyUyLPWtnqMIRpj19yH-24" value="Search Request&lt;br&gt;(book, user, post)" style="edgeLabel;html=1;align=center;verticalAlign=middle;resizable=0;points=[];" vertex="1" connectable="0" parent="OmyUyLPWtnqMIRpj19yH-23">
          <mxGeometry x="0.0677" relative="1" as="geometry">
            <mxPoint as="offset" />
          </mxGeometry>
        </mxCell>
        <mxCell id="OmyUyLPWtnqMIRpj19yH-36" style="edgeStyle=orthogonalEdgeStyle;rounded=0;orthogonalLoop=1;jettySize=auto;html=1;exitX=0.75;exitY=1;exitDx=0;exitDy=0;entryX=0.75;entryY=0;entryDx=0;entryDy=0;" edge="1" parent="WIyWlLk6GJQsqaUBKTNV-1" source="OmyUyLPWtnqMIRpj19yH-2" target="OmyUyLPWtnqMIRpj19yH-35">
          <mxGeometry relative="1" as="geometry" />
        </mxCell>
        <mxCell id="OmyUyLPWtnqMIRpj19yH-37" value="DM" style="edgeLabel;html=1;align=center;verticalAlign=middle;resizable=0;points=[];" vertex="1" connectable="0" parent="OmyUyLPWtnqMIRpj19yH-36">
          <mxGeometry x="0.0381" y="2" relative="1" as="geometry">
            <mxPoint as="offset" />
          </mxGeometry>
        </mxCell>
        <mxCell id="OmyUyLPWtnqMIRpj19yH-38" style="edgeStyle=orthogonalEdgeStyle;rounded=0;orthogonalLoop=1;jettySize=auto;html=1;exitX=0.5;exitY=1;exitDx=0;exitDy=0;entryX=0.5;entryY=0;entryDx=0;entryDy=0;" edge="1" parent="WIyWlLk6GJQsqaUBKTNV-1" source="OmyUyLPWtnqMIRpj19yH-2" target="OmyUyLPWtnqMIRpj19yH-35">
          <mxGeometry relative="1" as="geometry" />
        </mxCell>
        <mxCell id="OmyUyLPWtnqMIRpj19yH-39" value="Friend&lt;br&gt;Request" style="edgeLabel;html=1;align=center;verticalAlign=middle;resizable=0;points=[];" vertex="1" connectable="0" parent="OmyUyLPWtnqMIRpj19yH-38">
          <mxGeometry x="-0.5333" y="1" relative="1" as="geometry">
            <mxPoint as="offset" />
          </mxGeometry>
        </mxCell>
        <mxCell id="OmyUyLPWtnqMIRpj19yH-2" value="Client" style="rounded=0;whiteSpace=wrap;html=1;fillColor=#04801A;" vertex="1" parent="WIyWlLk6GJQsqaUBKTNV-1">
          <mxGeometry x="130" y="370" width="120" height="60" as="geometry" />
        </mxCell>
        <mxCell id="OmyUyLPWtnqMIRpj19yH-6" value="More Books DB" style="rounded=0;whiteSpace=wrap;html=1;fillColor=#F7A500;strokeColor=#000000;shadow=1;" vertex="1" parent="WIyWlLk6GJQsqaUBKTNV-1">
          <mxGeometry x="440" y="170" width="120" height="60" as="geometry" />
        </mxCell>
        <mxCell id="OmyUyLPWtnqMIRpj19yH-16" value="3rd Party User Auth&lt;br&gt;(google, facebook)" style="rounded=0;whiteSpace=wrap;html=1;" vertex="1" parent="WIyWlLk6GJQsqaUBKTNV-1">
          <mxGeometry x="707" y="370" width="120" height="60" as="geometry" />
        </mxCell>
        <mxCell id="OmyUyLPWtnqMIRpj19yH-18" style="edgeStyle=orthogonalEdgeStyle;rounded=0;orthogonalLoop=1;jettySize=auto;html=1;exitX=0.75;exitY=1;exitDx=0;exitDy=0;entryX=0.551;entryY=0.023;entryDx=0;entryDy=0;entryPerimeter=0;" edge="1" parent="WIyWlLk6GJQsqaUBKTNV-1" source="OmyUyLPWtnqMIRpj19yH-6" target="OmyUyLPWtnqMIRpj19yH-0">
          <mxGeometry relative="1" as="geometry" />
        </mxCell>
        <mxCell id="OmyUyLPWtnqMIRpj19yH-22" value="User Account&lt;br&gt;Data" style="edgeLabel;html=1;align=center;verticalAlign=middle;resizable=0;points=[];" vertex="1" connectable="0" parent="OmyUyLPWtnqMIRpj19yH-18">
          <mxGeometry x="-0.3823" y="-1" relative="1" as="geometry">
            <mxPoint as="offset" />
          </mxGeometry>
        </mxCell>
        <mxCell id="OmyUyLPWtnqMIRpj19yH-25" style="edgeStyle=orthogonalEdgeStyle;rounded=0;orthogonalLoop=1;jettySize=auto;html=1;exitX=0;exitY=0.75;exitDx=0;exitDy=0;entryX=1.007;entryY=0.674;entryDx=0;entryDy=0;entryPerimeter=0;" edge="1" parent="WIyWlLk6GJQsqaUBKTNV-1" source="OmyUyLPWtnqMIRpj19yH-16" target="OmyUyLPWtnqMIRpj19yH-0">
          <mxGeometry relative="1" as="geometry" />
        </mxCell>
        <mxCell id="OmyUyLPWtnqMIRpj19yH-26" value="ok Auth" style="edgeLabel;html=1;align=center;verticalAlign=middle;resizable=0;points=[];" vertex="1" connectable="0" parent="OmyUyLPWtnqMIRpj19yH-25">
          <mxGeometry x="-0.0212" y="-1" relative="1" as="geometry">
            <mxPoint as="offset" />
          </mxGeometry>
        </mxCell>
        <mxCell id="OmyUyLPWtnqMIRpj19yH-29" value="3rd party platform" style="rounded=0;whiteSpace=wrap;html=1;" vertex="1" parent="WIyWlLk6GJQsqaUBKTNV-1">
          <mxGeometry x="460.5" y="540" width="120" height="60" as="geometry" />
        </mxCell>
        <mxCell id="OmyUyLPWtnqMIRpj19yH-35" value="Client 2" style="rounded=0;whiteSpace=wrap;html=1;fillColor=#04801A;" vertex="1" parent="WIyWlLk6GJQsqaUBKTNV-1">
          <mxGeometry x="130" y="540" width="120" height="60" as="geometry" />
        </mxCell>
      </root>
    </mxGraphModel>
  </diagram>
</mxfile>
